# xmcd
#
# Track frame offsets:
#	150
#	14755
#	30283
#	48803
#	69597
#	87165
#	105685
#	118646
#	137215
#	152957
#	168446
#	185436
#	199610
#	218508
#	239639
#	256944
#	273228
#	288156
#	302017
#	323280
#	341071
#
# Disc length: 4756 seconds
#
# Revision: 0
# Processed by: cddbd v1.5.2PL0 Copyright (c) Steve Scherf et al.
# Submitted via: EasyCDDAExtractor 10.0.3.1
#
DISCID=23129215
DTITLE=Hjerterknekt - De Beste Så Langt
DYEAR=2007
DGENRE=Country
TTITLE0=Slipp Meg Inn
TTITLE1=Menn Av Hjertet
TTITLE2=Berget Det Blå
TTITLE3=Høy Himmel
TTITLE4=Veien Opp
TTITLE5=Blod, Slit Og Tårer
TTITLE6=Siste Uskyldige Sommer
TTITLE7=Dans Med Meg
TTITLE8=Min Elskede
TTITLE9=Møte På En Kafe
TTITLE10=Regn I Juni
TTITLE11=Sakte Vals
TTITLE12=En Ny Dag Er På Vei
TTITLE13=Ingen Tid Å Miste
TTITLE14=Venn På Veien
TTITLE15=Hold Meg
TTITLE16=Vinter Aleine
TTITLE17=Nå I Natt
TTITLE18=Hun Danser Aleine
TTITLE19=Stort Steg
TTITLE20=Engel
EXTD=
EXTT0=
EXTT1=
EXTT2=
EXTT3=
EXTT4=
EXTT5=
EXTT6=
EXTT7=
EXTT8=
EXTT9=
EXTT10=
EXTT11=
EXTT12=
EXTT13=
EXTT14=
EXTT15=
EXTT16=
EXTT17=
EXTT18=
EXTT19=
EXTT20=
PLAYORDER=
